<?xml version="1.0" standalone="no"?>
<!DOCTYPE svg PUBLIC "-//W3C//DTD SVG 20010904//EN"
 "http://www.w3.org/TR/2001/REC-SVG-20010904/DTD/svg10.dtd">
<svg version="1.0" xmlns="http://www.w3.org/2000/svg"
 width="374.000000pt" height="342.000000pt" viewBox="0 0 374.000000 342.000000"
 preserveAspectRatio="xMidYMid meet">
<metadata>
Created by potrace 1.16, written by Peter Selinger 2001-2019
</metadata>
<g transform="translate(0.000000,342.000000) scale(0.100000,-0.100000)"
fill="#000000" stroke="none">
<path d="M1696 3409 c-67 -16 -153 -69 -209 -128 l-54 -56 -119 0 c-114 0
-122 -1 -186 -33 -79 -38 -159 -121 -197 -202 -36 -79 -42 -213 -12 -301 68
-205 309 -327 517 -264 60 18 62 18 39 1 -19 -13 -19 -15 0 -71 17 -50 18 -59
5 -63 -56 -19 -223 -113 -288 -162 -84 -63 -187 -166 -242 -243 -18 -26 -36
-47 -39 -47 -4 0 -18 20 -33 45 -15 25 -32 45 -38 45 -23 0 -20 -30 9 -77 43
-69 39 -90 -4 -25 -20 28 -40 52 -46 52 -25 0 -17 -34 21 -89 22 -34 36 -61
31 -61 -6 0 -27 25 -48 55 -21 30 -42 53 -48 51 -24 -7 -13 -40 30 -96 26 -34
44 -64 41 -67 -3 -4 -7 -4 -9 -2 -2 2 -25 31 -51 63 -30 38 -45 65 -41 75 4 9
9 31 12 49 4 24 14 37 37 49 44 22 66 43 87 85 25 48 24 130 0 184 -36 80
-138 127 -226 105 -39 -10 -48 -9 -77 9 -45 27 -135 27 -187 0 -40 -20 -76
-57 -86 -90 -4 -12 -19 -19 -48 -22 -100 -11 -177 -86 -177 -171 0 -29 -8 -48
-30 -74 -26 -29 -30 -42 -30 -89 0 -47 4 -60 28 -83 24 -24 27 -36 27 -87 0
-71 25 -125 79 -168 31 -26 48 -31 105 -34 80 -5 134 17 174 70 30 40 51 111
43 149 -5 27 -4 28 20 19 33 -13 106 -13 139 0 24 9 31 4 93 -61 92 -98 91
-111 -1 -20 -66 65 -78 73 -92 61 -14 -12 -7 -23 67 -97 45 -46 78 -83 73 -83
-6 1 -46 34 -90 75 -72 66 -82 73 -95 59 -13 -14 -9 -21 45 -67 163 -142 182
-172 29 -47 -93 76 -122 90 -131 64 -2 -6 48 -51 111 -100 64 -48 114 -90 111
-92 -2 -2 -58 35 -123 82 -79 57 -125 84 -136 80 -9 -3 -16 -10 -16 -15 0 -4
61 -50 135 -100 74 -51 133 -94 131 -97 -2 -2 -68 38 -146 88 -127 82 -144 91
-157 77 -17 -17 -10 -22 199 -147 l106 -64 -5 -71 c-3 -39 0 -116 6 -172 58
-501 396 -893 880 -1020 118 -31 357 -43 479 -23 394 63 723 311 893 674 48
104 83 236 99 372 l11 99 51 52 c49 50 53 52 93 46 24 -3 59 0 80 7 48 16 118
80 152 138 l26 44 -71 71 -70 70 -51 -32 c-101 -65 -149 -143 -138 -226 6 -39
3 -45 -33 -80 l-39 -38 -5 34 c-2 19 -8 68 -13 109 l-9 75 188 187 c206 204
227 235 228 329 l0 56 130 126 c148 144 155 159 97 215 -18 18 -43 32 -55 32
-15 0 -62 -41 -149 -130 l-126 -130 -51 0 c-87 0 -142 -34 -287 -177 -73 -71
-133 -123 -137 -117 -4 5 -33 43 -64 84 -128 169 -317 309 -520 385 l-46 17
14 47 c43 140 49 172 34 182 -12 9 -11 9 5 4 63 -21 141 -27 209 -16 146 24
249 99 313 229 36 73 38 80 38 176 0 93 -3 107 -32 168 -113 239 -407 320
-626 173 l-49 -32 -49 49 c-31 31 -78 63 -126 86 -71 33 -86 37 -173 39 -52 1
-112 -2 -134 -8z m594 -1340 c46 -89 80 -356 80 -626 l0 -173 -30 0 c-29 0
-30 -2 -30 -45 0 -34 4 -47 18 -52 41 -15 43 -24 12 -60 l-30 -34 0 -225 0
-226 37 -69 c21 -37 46 -70 56 -73 28 -7 10 -26 -24 -26 -34 0 -38 -19 -9 -45
39 -35 21 -84 -40 -109 -22 -9 -40 -22 -40 -30 0 -26 -20 -28 -29 -3 -5 14
-20 27 -33 30 -60 15 -87 77 -48 112 29 26 25 45 -9 45 -37 0 -48 15 -22 30
11 5 36 39 56 74 l35 63 0 217 c0 225 -6 265 -45 279 -23 10 -18 26 15 45 l31
17 -1 290 c-2 636 -2 659 16 644 8 -7 24 -29 34 -50z m1156 -154 c13 -32 -23
-77 -205 -259 -183 -183 -189 -187 -195 -160 -7 25 5 40 162 198 93 94 179
186 191 204 24 35 38 40 47 17z m-1475 -64 c52 -56 73 -124 73 -241 -1 -121
-26 -193 -86 -244 l-40 -35 36 -15 c36 -15 48 -42 22 -52 -8 -3 -25 -29 -37
-57 -22 -48 -24 -69 -27 -269 -3 -184 -1 -225 13 -270 23 -71 92 -188 111
-188 8 0 12 -5 9 -10 -3 -6 -19 -10 -36 -10 -34 0 -37 -12 -9 -47 11 -14 20
-33 20 -42 0 -23 -37 -61 -70 -73 -16 -5 -30 -18 -33 -29 -7 -25 -27 -25 -27
0 0 12 -11 23 -32 30 -67 24 -90 78 -48 116 31 28 25 45 -15 45 -19 0 -35 5
-35 10 0 6 6 10 13 10 14 0 71 94 98 163 17 42 19 76 19 272 0 202 -2 230 -21
280 -11 30 -30 61 -41 69 -27 19 -17 45 22 52 16 4 30 8 30 10 0 2 -19 23 -43
46 -57 58 -82 133 -80 248 1 102 30 188 79 238 46 46 86 44 135 -7z m1436
-343 c29 -29 53 -57 53 -63 0 -6 -10 -25 -23 -43 l-23 -31 -70 70 -69 70 30
25 c17 13 34 24 40 24 5 0 33 -23 62 -52z m-1894 -108 c20 0 22 -4 19 -40 -3
-31 -1 -40 11 -40 23 0 67 -22 67 -33 0 -5 -11 -20 -24 -32 -45 -42 -56 -107
-56 -346 0 -169 3 -226 15 -260 22 -62 87 -169 102 -169 7 0 13 -4 13 -10 0
-5 -16 -10 -35 -10 -40 0 -46 -17 -15 -45 41 -37 12 -104 -52 -120 -18 -5 -28
-14 -28 -26 0 -10 -7 -19 -15 -19 -8 0 -15 8 -15 18 0 10 -15 23 -40 34 -23 9
-45 27 -52 42 -10 23 -8 31 10 56 32 43 29 60 -13 60 -40 0 -45 11 -13 25 13
6 40 45 68 98 l45 89 0 231 c0 255 -10 313 -62 361 l-25 23 23 17 c13 9 31 16
41 16 14 0 18 8 18 34 0 19 -4 38 -10 41 -5 3 -9 23 -8 43 l1 37 4 -37 c4 -31
8 -38 26 -38z"/>
</g>
</svg>
